<?xml version="1.0" encoding="UTF-8"?>
<svg width="136px" height="140px" viewBox="0 0 136 140" version="1.1" xmlns="http://www.w3.org/2000/svg" xmlns:xlink="http://www.w3.org/1999/xlink">
    <!-- Generator: Sketch 48.2 (47327) - http://www.bohemiancoding.com/sketch -->
    <title>Untitled</title>
    <desc>Created with Sketch.</desc>
    <defs></defs>
    <g id="Page-1" stroke="none" stroke-width="1" fill="none" fill-rule="evenodd">
        <path d="M106.590239,60.5805664 L135.290527,60.5805664 L127.874512,69.6743164 L106.205439,69.6743164 C104.60208,97.1798002 99.0367035,123.919542 90.1655273,130.73584 C86.5187568,133.537889 66.686836,121.344785 46.6203725,107.109355 C44.3748106,117.32457 43.0405273,125.765015 43.0405273,130.73584 C43.0405273,130.73584 34.3549805,139.651855 34.3549805,139.651855 C34.3549805,133.524794 37.1122473,119.920168 41.5898534,103.502224 C20.5403282,88.2510907 0.709472656,71.9370602 0.709472656,69.6743164 C0.709472656,69.6743164 9.58837891,60.5805664 9.58837891,60.5805664 L55.2935249,60.5805664 C66.9095081,28.9669477 81.2686286,0.348144531 92.6743164,0.348144531 C103.081407,0.348144531 107.405532,29.607633 106.590239,60.5805664 Z M99.7161052,69.6743164 L56.6328467,69.6743164 C53.8230966,78.7742576 51.2698668,87.9128232 49.1543922,96.3638623 C69.488229,110.248564 91.4088053,124.060903 92.6743164,122.853027 C94.4667246,121.142251 98.3167914,96.0821685 99.7161052,69.6743164 Z M100.093691,60.5805664 C100.906746,32.9896286 98.4858003,6.67626953 87.7006836,6.67626953 C80.1503248,6.67626953 68.8678944,32.2291049 59.5324459,60.5805664 L100.093691,60.5805664 Z M52.0535694,69.6743164 L14.3129883,69.6743164 C14.3129883,71.4910928 28.3374029,81.9842539 44.5245343,93.182013 C46.7735812,85.5733686 49.3123155,77.6067721 52.0535694,69.6743164 Z" id="Combined-Shape" fill="rgb(147 161 161)"></path>
    </g>
</svg>
